<?xml version="1.0" encoding="UTF-8"?>
<svg width="100" height="100" viewBox="0 0 100 100" xmlns="http://www.w3.org/2000/svg">
  <path d="M25.92 32.44c0 1.37.15 2.47.43 3.27.3.8.68 1.68 1.17 2.62.18.3.25.6.25.88 0 .38-.23.77-.71 1.15l-2.35 1.57c-.34.22-.67.34-1 .34-.38 0-.77-.18-1.15-.53a11.93 11.93 0 0 1-1.37-1.8c-.39-.65-.77-1.36-1.16-2.16-2.9 3.43-6.55 5.14-10.93 5.14-3.12 0-5.6-.9-7.44-2.68-1.84-1.79-2.76-4.17-2.76-7.15 0-3.17 1.12-5.75 3.37-7.72 2.25-1.98 5.25-2.97 9-2.97 1.25 0 2.54.1 3.89.29 1.35.19 2.74.48 4.19.86v-2.66c0-2.76-.57-4.7-1.71-5.81-1.15-1.12-3.1-1.67-5.85-1.67-1.26 0-2.56.15-3.9.46a29.3 29.3 0 0 0-3.89 1.23c-.57.22-1 .35-1.27.4-.28.05-.48.07-.6.07-.53 0-.8-.38-.8-1.15v-1.82c0-.6.08-1.04.24-1.3.16-.27.45-.53.86-.8.71-.46 1.75-.9 3.1-1.33 1.36-.43 2.84-.64 4.45-.64 3.38 0 5.87.77 7.46 2.31 1.58 1.54 2.37 3.87 2.37 7v9.22h.01zm-15.1 4.31c1.2 0 2.45-.22 3.75-.65 1.3-.44 2.46-1.23 3.46-2.37.59-.7 1.02-1.5 1.29-2.37.27-.88.4-1.93.4-3.16v-1.52a31.24 31.24 0 0 0-3.35-.64 27.85 27.85 0 0 0-3.43-.22c-2.44 0-4.23.48-5.39 1.45-1.15.97-1.73 2.33-1.73 4.09 0 1.66.42 2.92 1.27 3.78.84.87 2.02 1.3 3.56 1.3l.17.31zm26.47 3.1c-.68 0-1.14-.11-1.44-.35-.3-.23-.56-.77-.78-1.57l-8.73-28.72c-.22-.77-.34-1.27-.34-1.5 0-.6.3-.92.9-.92h3.68c.71 0 1.2.12 1.46.35.3.23.53.77.75 1.57l6.24 24.6 5.8-24.6c.18-.8.4-1.34.7-1.57.3-.23.81-.35 1.54-.35h3.01c.72 0 1.22.12 1.52.35.3.23.54.77.72 1.57l5.87 24.9 6.43-24.9c.22-.8.46-1.34.75-1.57.3-.23.8-.35 1.47-.35h3.5c.6 0 .9.3.9.92 0 .18-.03.37-.08.57-.05.2-.13.48-.25.83l-8.95 28.72c-.22.8-.48 1.34-.78 1.57-.3.23-.77.35-1.44.35h-3.24c-.72 0-1.22-.12-1.52-.37-.3-.25-.53-.8-.7-1.65l-5.77-24.03-5.72 23.99c-.18.85-.4 1.4-.7 1.65-.3.25-.81.37-1.52.37h-3.24zm46.28 1.02c-1.47 0-2.94-.17-4.41-.52-1.47-.35-2.62-.73-3.43-1.15-.48-.25-.8-.52-.97-.8-.16-.27-.25-.57-.25-.88v-1.89c0-.77.28-1.15.84-1.15.22 0 .44.04.67.11.22.08.54.2.94.37 1.28.57 2.67 1 4.16 1.3 1.51.3 2.99.46 4.44.46 2.35 0 4.18-.41 5.47-1.24 1.3-.82 1.95-2 1.95-3.52 0-1.03-.33-1.89-.99-2.57-.66-.68-1.9-1.29-3.73-1.82l-5.37-1.67c-2.71-.85-4.7-2.1-5.97-3.74-1.26-1.63-1.89-3.45-1.89-5.45 0-1.57.34-2.96 1-4.16a9.16 9.16 0 0 1 2.68-3.1c1.12-.84 2.42-1.47 3.9-1.89 1.47-.42 3.04-.63 4.69-.63 .82 0 1.67.05 2.51.15.85.1 1.65.24 2.42.41.75.18 1.46.37 2.13.59.67.22 1.2.44 1.6.66.53.3.91.6 1.15.9.23.3.35.7.35 1.22v1.75c0 .77-.28 1.16-.84 1.16-.3 0-.7-.15-1.22-.44-1.84-.84-3.9-1.26-6.2-1.26-2.14 0-3.81.35-5.01 1.04-1.2.7-1.8 1.77-1.8 3.24 0 1.03.37 1.91 1.1 2.64.74.73 2.1 1.4 4.08 2l5.25 1.67c2.68.85 4.62 2.05 5.83 3.6 1.2 1.54 1.8 3.3 1.8 5.25 0 1.6-.32 3.04-.97 4.3a9.64 9.64 0 0 1-2.72 3.28c-1.15.9-2.52 1.59-4.1 2.05a18.86 18.86 0 0 1-5.22.7v-.02z" fill="#252F3E"/>
  <path d="M89.17 61.92c-10.8 7.97-26.47 12.2-39.95 12.2-18.9 0-35.93-6.99-48.81-18.6-.52-.44-.1-1.04.54-.7 16.95 9.86 37.91 15.81 59.6 15.81 14.61 0 30.67-3.03 45.44-9.3 2.22-.94 4.1 1.46 1.18 4.6z" fill="#FF9900"/>
  <path d="M93.66 56.75c-1.38-1.77-9.13-.84-12.62-.42-.84.1-.97-.63-.21-1.17 6.18-4.34 16.31-3.09 17.5-1.63 1.18 1.47-.31 11.64-6.12 16.5-.9.77-1.74.36-1.34-.63 1.3-3.24 4.22-10.5 2.8-12.65z" fill="#FF9900"/>
</svg>
